# xmcd
#
# Track frame offsets: 
#        150
#        15360
#        32055
#
# Disc length: 617 seconds
#
# Revision: 0
# Processed by: cddbd v1.5.2PL0 Copyright (c) Steve Scherf et al.
# Submitted via: ExactAudioCopy v0.95b4
#
DISCID=15026703
DTITLE=Ted Herold - Hör Auf Dein Herz
DYEAR=1998
DGENRE=Rock and Roll
TTITLE0=Hör Auf Dein Herz
TTITLE1=Desperados Der Liebe
TTITLE2=Hast Du Heute Deinen Engel Schon Geseh'n
EXTD=
EXTT0=
EXTT1=
EXTT2=
PLAYORDER=
